<?xml version="1.0" encoding="UTF-8"?>
<svg version="1.1" xmlns="http://www.w3.org/2000/svg" width="48" height="48">
<path d="M0 0 C15.84 0 31.68 0 48 0 C48 15.84 48 31.68 48 48 C32.16 48 16.32 48 0 48 C0 32.16 0 16.32 0 0 Z " fill="#050107" transform="translate(0,0)"/>
<path d="M0 0 C0.99 0.33 1.98 0.66 3 1 C4.0625 3.1875 4.0625 3.1875 5 6 C5.37125 7.093125 5.7425 8.18625 6.125 9.3125 C6.41375 10.199375 6.7025 11.08625 7 12 C7.33 12 7.66 12 8 12 C8.66 8.37 9.32 4.74 10 1 C14 3 14 3 16 5 C16 6.32 16 7.64 16 9 C14.02 9.66 12.04 10.32 10 11 C9.67 12.65 9.34 14.3 9 16 C8.01 16 7.02 16 6 16 C5.67 15.01 5.34 14.02 5 13 C4.01 12.34 3.02 11.68 2 11 C2 10.34 2 9.68 2 9 C0.35 9.33 -1.3 9.66 -3 10 C-2.39009109 6.44219804 -1.4216319 3.3171411 0 0 Z " fill="#520D23" transform="translate(17,11)"/>
<path d="M0 0 C0.99 0.33 1.98 0.66 3 1 C3.33 1.99 3.66 2.98 4 4 C3.01 4 2.02 4 1 4 C1.34227572 6.97065509 1.34227572 6.97065509 2 10 C2.66 10.33 3.32 10.66 4 11 C3.37609375 11.07089844 2.7521875 11.14179688 2.109375 11.21484375 C-0.19229321 11.80004532 -0.19229321 11.80004532 -1.046875 14.06640625 C-1.39492188 15.30197266 -1.39492188 15.30197266 -1.75 16.5625 C-1.99234375 17.38878906 -2.2346875 18.21507813 -2.484375 19.06640625 C-2.65453125 19.70449219 -2.8246875 20.34257813 -3 21 C-3.33 20.01 -3.66 19.02 -4 18 C-4.66 18 -5.32 18 -6 18 C-6.05447047 16.58376784 -6.09300508 15.16691809 -6.125 13.75 C-6.14820312 12.96109375 -6.17140625 12.1721875 -6.1953125 11.359375 C-5.97954438 8.75289611 -5.40935125 7.19232417 -4 5 C-1.875 4.25 -1.875 4.25 0 4 C0 2.68 0 1.36 0 0 Z " fill="#34061A" transform="translate(33,16)"/>
<path d="M0 0 C0.66 0.66 1.32 1.32 2 2 C3.32 2 4.64 2 6 2 C8 5 8 5 7.625 7.1875 C7.41875 7.785625 7.2125 8.38375 7 9 C3.37471432 9.20140476 1.13498292 8.85776765 -2 7 C-1.125 2.25 -1.125 2.25 0 0 Z " fill="#2E0519" transform="translate(13,18)"/>
<path d="M0 0 C0.33 0.66 0.66 1.32 1 2 C2.32 2.33 3.64 2.66 5 3 C4.01 6.3 3.02 9.6 2 13 C1.67 12.01 1.34 11.02 1 10 C0.34 10 -0.32 10 -1 10 C-1.02689216 8.52093108 -1.04634621 7.04172517 -1.0625 5.5625 C-1.07410156 4.73878906 -1.08570312 3.91507813 -1.09765625 3.06640625 C-1 1 -1 1 0 0 Z " fill="#270517" transform="translate(28,24)"/>
<path d="M0 0 C2.46800047 1.15173355 4.04783565 2.04783565 6 4 C6 5.32 6 6.64 6 8 C4.35 8.66 2.7 9.32 1 10 C0 9 0 9 -0.09765625 6.93359375 C-0.08605469 6.10988281 -0.07445313 5.28617188 -0.0625 4.4375 C-0.05347656 3.61121094 -0.04445313 2.78492188 -0.03515625 1.93359375 C-0.02355469 1.29550781 -0.01195313 0.65742188 0 0 Z " fill="#72172D" transform="translate(27,12)"/>
<path d="M0 0 C0.99 0.33 1.98 0.66 3 1 C3 2.65 3 4.3 3 6 C2.01 6 1.02 6 0 6 C0 4.02 0 2.04 0 0 Z " fill="#8F2138" transform="translate(17,11)"/>
</svg>
